<svg width="648" height="800" viewBox="0 0 648 800" fill="none" xmlns="http://www.w3.org/2000/svg">
<g clip-path="url(#clip0_229_14027)">
<rect width="648" height="1467.8" transform="translate(0 -653)" fill="white"/>
<path d="M75.4151 805.553C89.1168 797.016 95.472 764.936 96.9369 749.963C91.0225 726.907 68.6427 696.729 65.5236 692.855C55.8991 722.515 28.1741 761.072 11.1215 775.23C7.30618 776.089 -1.58207 786.168 -5.5493 791.101C4.96005 815.85 43.8179 865.083 58.9948 879.687C83.8229 864.934 80.2867 824.117 75.4151 805.553Z" fill="#0E2648"/>
<path d="M389.524 528.742L226.153 594.764C217.225 599.482 200.496 613.21 205.006 630.374C209.516 647.539 226.309 651.601 234.141 651.487L408.994 555.742L389.524 528.742Z" fill="#32CAEF"/>
<path d="M215.508 595.921L387.134 529.078" stroke="#0E2648" stroke-width="10.244" stroke-linecap="round"/>
<path d="M238.898 644.851L409.464 558.816" stroke="#0E2648" stroke-width="10.244" stroke-linecap="round"/>
<path d="M421.004 568.91C400.823 571.686 388.372 534.706 384.67 515.868C382.613 505.404 388.542 498.591 388.46 483.535C388.359 464.716 400.217 471.69 400.196 475.284C400.175 478.879 411.887 495.76 415.466 499.372C419.046 502.984 429.025 496.957 439.701 493.452C446.836 490.273 466.189 480.401 474.819 477.695C477.854 477.851 483.155 479.427 480.075 484.487C476.995 489.547 459.222 499.751 450.875 502.388C452.216 504.932 454.096 506.985 454.868 507.694L498.142 497.123C499.825 499.105 503.017 503.829 502.321 506.87C501.626 509.912 472.933 521.527 459.212 525.477L496.62 524.415C497.668 526.253 499.21 530.602 496.992 533.298C494.773 535.994 469.386 536.452 457.017 538.576C456.669 540.097 458.128 541.894 458.9 542.603C460.406 545.824 476.18 545.86 488.121 544.438C490.232 545.717 493.898 548.95 491.68 551.645C488.906 555.015 471.088 559.367 460.285 559.314C449.482 559.261 446.231 565.439 421.004 568.91Z" fill="#54CFED" stroke="#0E2648" stroke-width="9.72578" stroke-linecap="round" stroke-linejoin="round"/>
<path d="M389.767 519.934C393.29 536.549 375.351 538.462 368.336 541.98C367.079 548.076 373.677 562.626 377.643 569.071C383.921 565.6 398.82 557.882 405.19 555.886C399.313 539.447 387.926 511.255 389.767 519.934Z" fill="#54CFED"/>
<path d="M319.633 475.523C319.65 475.738 319.661 475.953 319.665 476.169C321.533 575.246 281.654 644.069 259.849 667.428C241.986 688.874 208.721 716.564 165.824 731.325C122.368 746.278 69.0444 747.909 12.6844 716.488C-128.145 637.978 -118.336 464.301 -31.648 384.125C-10.1071 364.202 12.1643 350.886 33.5546 339.798C41.6746 335.588 49.4354 331.804 56.9437 328.142C69.7215 321.911 81.7678 316.036 93.6076 309.033C111.812 298.266 128.064 285.565 141.786 266.87C155.538 248.134 167.175 222.791 175.243 186.209C176.085 182.389 178.908 179.312 182.642 178.144C186.375 176.976 190.448 177.896 193.317 180.555C231.191 215.655 307.651 322.48 319.633 475.523Z" fill="url(#paint0_linear_229_14027)" stroke="#0E2648" stroke-width="21.825" stroke-linejoin="round"/>
<mask id="mask0_229_14027" style="mask-type:alpha" maskUnits="userSpaceOnUse" x="-85" y="187" width="394" height="543">
<path d="M17.6855 705.639C124.322 765.088 217.895 699.24 251.351 658.885C271.14 637.859 310.263 571.658 308.442 475.056C296.693 325.001 221.643 220.656 185.587 187.241C152.318 338.101 57.6052 314.833 -24.5509 390.818C-106.707 466.803 -115.611 631.328 17.6855 705.639Z" fill="url(#paint1_linear_229_14027)"/>
</mask>
<g mask="url(#mask0_229_14027)">
<path d="M-19.59 641.579C114.635 750.081 278.038 634.044 308.931 532.323C308.931 597.374 292.053 748.725 224.54 833.719C157.027 918.712 -24.6131 827.44 -106.994 771.179C-149.943 674.984 -192.591 501.732 -19.59 641.579Z" fill="#3DBBDA"/>
<path d="M269.794 359.291C264.047 336.214 242.951 304.749 233.122 291.902C209.388 264.686 237.483 334.348 240.525 344.098C249.314 372.265 276.978 388.139 269.794 359.291Z" fill="#3DBBDA"/>
<ellipse cx="20.8329" cy="10.9125" rx="20.8329" ry="10.9125" transform="matrix(-0.491407 -0.87093 -0.87093 0.491407 266.434 409.909)" fill="#3DBBDA"/>
<path d="M275.098 351.832C267.5 329.296 243.925 299.644 233.087 287.635C207.226 262.431 240.873 329.588 244.695 339.06C255.735 366.422 284.595 380.003 275.098 351.832Z" fill="#F3F3F3"/>
<ellipse cx="20.8329" cy="10.9125" rx="20.8329" ry="10.9125" transform="matrix(-0.634186 -0.773181 -0.773181 0.634186 276.372 397.919)" fill="#F3F3F3"/>
<path d="M172.221 373.507C186.392 378.018 214.639 388.482 214.254 394.248C213.791 401.177 174.693 374.396 159.671 375.936L157.978 376.263C158.501 376.106 159.066 375.998 159.671 375.936L172.221 373.507Z" fill="#0E2648"/>
<path d="M313.105 485.801C306.513 473.404 292.135 449.167 287.358 451.397C281.619 454.076 311.868 483.671 313.536 498.845L313.594 500.604C313.624 500.043 313.603 499.455 313.536 498.845L313.105 485.801Z" fill="#0E2648"/>
</g>
<circle cx="136.064" cy="451.382" r="37.6744" transform="rotate(48.5044 136.064 451.382)" fill="#0E2648"/>
<ellipse cx="152.343" cy="449.967" rx="16.4198" ry="17.6829" transform="rotate(48.5044 152.343 449.967)" fill="white"/>
<ellipse cx="115.031" cy="452.925" rx="4.44382" ry="4.78565" transform="rotate(48.5044 115.031 452.925)" fill="white"/>
<circle cx="241.199" cy="542.954" r="33.1535" transform="rotate(48.5044 241.199 542.954)" fill="#0E2648"/>
<ellipse cx="256.579" cy="541.668" rx="13.6025" ry="14.6488" transform="rotate(48.5044 256.579 541.668)" fill="white"/>
<ellipse cx="220.778" cy="545.1" rx="5.64492" ry="6.07915" transform="rotate(48.5044 220.778 545.1)" fill="white"/>
<path d="M142.833 576.025C151.372 576.528 167.848 580.546 165.437 592.602C163.026 604.658 149.363 606.165 142.833 605.411C143.335 612.695 141.024 626.66 127.763 624.249C114.501 621.837 113.698 605.663 114.953 597.877" stroke="#0E2648" stroke-width="9.04186" stroke-linecap="round"/>
<rect x="-6.02832" y="-1275.38" width="67.8139" height="2712.56" fill="#38ABB4"/>
<path d="M38.5605 346.176C50.6211 346.176 60.3367 334.786 63.6868 329.091C73.3353 325.874 71.727 346.511 69.7168 357.232C69.3819 359.577 65.2949 365.071 51.6262 368.288C34.5403 372.308 23.4847 346.176 38.5605 346.176Z" fill="#66D1EC" stroke="#0E2648" stroke-width="12.0606" stroke-linecap="round" stroke-linejoin="round"/>
<path d="M40.5745 323.271C49.104 323.271 55.975 315.248 58.3443 311.237C65.168 308.972 64.0306 323.507 62.6089 331.058C62.372 332.71 59.4816 336.58 49.8148 338.845C37.7313 341.677 29.9125 323.271 40.5745 323.271Z" fill="#66D1EC" stroke="#0E2648" stroke-width="12.0606" stroke-linecap="round" stroke-linejoin="round"/>
<path d="M32.6776 370.074C46.8444 374.945 61.9601 368.097 67.7471 364.064C80.1263 364.919 71.5272 383.786 65.6802 393.112C64.5244 395.194 57.9372 398.739 40.8358 396.261C19.459 393.162 14.969 363.986 32.6776 370.074Z" fill="#66D1EC" stroke="#0E2648" stroke-width="12.0606" stroke-linecap="round" stroke-linejoin="round"/>
<path d="M40.5786 401.251C53.3989 402.103 64.4825 391.425 68.4217 385.979C78.8915 383.452 75.8121 403.93 72.9637 414.485C72.4521 416.801 67.7429 421.994 52.9997 424.237C34.5707 427.04 24.5531 400.185 40.5786 401.251Z" fill="#66D1EC" stroke="#0E2648" stroke-width="12.0606" stroke-linecap="round" stroke-linejoin="round"/>
</g>
<defs>
<linearGradient id="paint0_linear_229_14027" x1="244.022" y1="213.433" x2="30.0742" y2="713.355" gradientUnits="userSpaceOnUse">
<stop stop-color="#8BD7EA"/>
<stop offset="1" stop-color="#32CAEF"/>
</linearGradient>
<linearGradient id="paint1_linear_229_14027" x1="243.71" y1="212.115" x2="29.7617" y2="712.037" gradientUnits="userSpaceOnUse">
<stop stop-color="#96D9EA"/>
<stop offset="1" stop-color="#13C6F1"/>
</linearGradient>
<clipPath id="clip0_229_14027">
<rect width="648" height="1467.8" fill="white" transform="translate(0 -653)"/>
</clipPath>
</defs>
</svg>
