<svg width="6697" height="1057" viewBox="0 0 6697 1057" fill="none" xmlns="http://www.w3.org/2000/svg">
<path d="M4850.1 744.414C4883.83 749.039 4910.3 706.493 4919.32 684.642C4923.56 675.498 4901 666.31 4891.63 688.03C4882.26 709.75 4807.93 738.632 4850.1 744.414Z" fill="white"/>
<path d="M4924.64 658.821C4929.84 652.243 4922.41 637.234 4918.05 630.552C4899.38 623.489 4903.72 643.41 4904.44 653.234C4905.16 663.058 4918.14 667.044 4924.64 658.821Z" fill="white"/>
<path d="M646.137 916.509C687.625 888.534 680.576 805.183 671.866 767.005C668.737 750.56 635.752 761.175 643.965 799.529C652.178 837.883 594.277 951.477 646.137 916.509Z" fill="white"/>
<path d="M655.627 727.3C655.767 713.295 634.632 700.852 624.047 696.381C597.219 705.88 619.133 727.977 628.363 740.308C637.594 752.639 655.452 744.806 655.627 727.3Z" fill="white"/>
<path d="M507.5 362C716.7 649.6 735.333 826.5 718.5 879H1006.5C938.5 863.5 699.5 378.5 507.5 0C325.991 357.853 59.5 879 0 879H316C258.4 764.2 419.666 486.5 507.5 362Z" fill="white"/>
<path d="M1464.26 936.003C1443.46 936.003 1423.14 934.8 1403.31 932.393C1366.7 927.949 1331.75 919.4 1298.48 906.747C1247.91 887.243 1203.85 859.793 1166.28 824.396C1129.44 789 1100.55 747.464 1079.6 699.787C1059.37 652.11 1049.26 600.099 1049.26 543.754C1049.26 487.409 1059.37 435.398 1079.6 387.722C1100.55 340.045 1129.8 298.509 1167.37 263.112C1204.93 227.716 1249 200.266 1299.56 180.762C1350.13 161.258 1405.03 151.506 1464.26 151.506C1524.22 151.506 1579.12 161.258 1628.96 180.762C1679.53 200.266 1723.23 227.716 1760.07 263.112C1797.64 297.786 1826.89 338.962 1847.84 386.638C1868.79 434.315 1879.27 486.687 1879.27 543.754C1879.27 600.099 1868.79 652.471 1847.84 700.87C1826.89 748.547 1797.64 790.084 1760.07 825.48C1723.23 860.154 1679.53 887.243 1628.96 906.747C1622.16 909.41 1615.26 911.891 1608.26 914.19C1564.03 928.732 1516.03 936.003 1464.26 936.003ZM1464.26 786.472C1498.21 786.472 1529.28 780.693 1557.45 769.135C1586.34 757.577 1611.63 740.962 1633.3 719.291C1654.97 697.62 1671.58 671.976 1683.14 642.358C1695.42 612.019 1701.56 579.151 1701.56 543.754C1701.56 507.636 1695.42 474.768 1683.14 445.15C1671.58 415.533 1654.97 389.889 1633.3 368.218C1611.63 346.547 1586.34 329.932 1557.45 318.374C1529.28 306.816 1498.21 301.037 1464.26 301.037C1430.31 301.037 1398.89 306.816 1369.99 318.374C1341.1 329.932 1315.82 346.547 1294.14 368.218C1273.2 389.889 1256.58 415.533 1244.3 445.15C1232.74 474.768 1226.96 507.636 1226.96 543.754C1226.96 579.151 1232.74 612.019 1244.3 642.358C1256.58 671.976 1273.2 697.62 1294.14 719.291C1315.82 740.962 1341.1 757.577 1369.99 769.135C1398.89 780.693 1430.31 786.472 1464.26 786.472Z" fill="white"/>
<path d="M4796.49 936.003C4688.85 936.003 4604.7 906.024 4544.02 846.068C4483.34 786.111 4453 700.509 4453 589.264V241.509C4453 198.983 4487.47 164.509 4530 164.509H4639.65C4690.22 164.509 4727.06 212.433 4714.06 261.305L4628.54 582.763C4613.31 656 4643.35 707.011 4672.96 738.795C4702.58 770.58 4744.12 786.472 4797.57 786.472C4851.03 786.472 4892.56 770.58 4922.18 738.795C4951.8 707.011 4980.31 652.5 4966.61 582.763L4877.82 262.054C4864.24 213.004 4901.13 164.509 4952.03 164.509H5062.98C5105.5 164.509 5139.98 198.983 5139.98 241.509V589.264C5139.98 700.509 5109.64 786.111 5048.96 846.068C4988.28 906.024 4904.12 936.003 4796.49 936.003Z" fill="white"/>
<path d="M2868.19 923C2812.43 923 2775.16 865.58 2797.86 814.653L3067.29 210.161C3079.67 182.395 3107.22 164.509 3137.62 164.509H3211.09C3241.46 164.509 3268.99 182.356 3281.38 210.078L3551.68 814.569C3574.45 865.505 3537.18 923 3481.38 923H3467.41C3436.26 923 3408.19 904.24 3396.27 875.468L3151.83 285.371C3145.51 270.128 3156.71 253.36 3173.21 253.36V253.36C3189.73 253.36 3200.93 270.153 3194.59 285.4L2949.16 875.566C2937.22 904.286 2909.17 923 2878.07 923H2868.19ZM3012.49 760.466C2966.6 760.466 2934.44 715.159 2949.59 671.836V671.836C2958.94 645.096 2984.17 627.188 3012.49 627.188H3308.34C3336.49 627.188 3361.61 644.877 3371.09 671.382V671.382C3386.61 714.786 3354.44 760.466 3308.34 760.466H3012.49Z" fill="white"/>
<path d="M3755.86 923C3713.33 923 3678.86 888.526 3678.86 846V241.508C3678.86 198.983 3713.33 164.509 3755.86 164.509H4007.17C4075.08 164.509 4133.59 175.705 4182.71 198.099C4231.83 219.77 4269.76 251.193 4296.48 292.369C4323.21 333.544 4336.58 382.665 4336.58 439.733C4336.58 496.078 4323.21 544.838 4296.48 586.013C4269.76 627.188 4231.83 658.973 4182.71 681.366C4133.59 703.038 4075.08 713.873 4007.17 713.873H3831.38C3810.96 713.873 3800.66 689.248 3815 674.709V674.709C3829.45 660.061 3854.39 670.291 3854.39 690.865V846C3854.39 888.526 3819.92 923 3777.39 923H3755.86ZM3854.39 594.455C3854.39 615.875 3828.16 626.227 3813.53 610.582V610.582C3799.43 595.494 3810.12 570.843 3830.78 570.843H3997.42C4051.6 570.843 4092.05 559.285 4118.78 536.169C4145.51 513.054 4158.87 480.908 4158.87 439.733C4158.87 397.835 4145.51 365.328 4118.78 342.212C4092.05 319.096 4051.6 307.538 3997.42 307.538H3830.78C3810.12 307.538 3799.43 282.888 3813.53 267.8V267.8C3828.16 252.154 3854.39 262.507 3854.39 283.927V594.455Z" fill="white"/>
<path d="M5389.66 923C5347.13 923 5312.66 888.526 5312.66 846V241.508C5312.66 198.983 5347.13 164.509 5389.66 164.509H5640.98C5708.88 164.509 5767.39 175.705 5816.52 198.099C5865.64 219.77 5903.56 251.193 5930.29 292.369C5957.02 333.544 5970.38 382.665 5970.38 439.733C5970.38 496.078 5957.02 544.838 5930.29 586.013C5903.56 626.466 5865.64 657.528 5816.52 679.199C5767.39 700.871 5708.88 711.706 5640.98 711.706H5465.51C5445.21 711.706 5435.13 687.107 5449.57 672.859V672.859C5463.91 658.719 5488.2 668.877 5488.2 689.016V846C5488.2 888.526 5453.72 923 5411.2 923H5389.66ZM5830.39 923C5807.84 923 5786.42 913.113 5771.79 895.949L5619.66 717.461C5562.68 650.61 5644.09 555.81 5718.78 602.039L5779.13 639.393C5788.07 644.923 5795.78 652.223 5801.78 660.844L5900.13 801.977C5935.7 853.026 5899.18 923 5836.96 923H5830.39ZM5488.2 595.391C5488.2 616.603 5462.29 626.928 5447.7 611.529V611.529C5433.53 596.574 5444.13 571.927 5464.73 571.927H5631.23C5685.4 571.927 5725.86 560.369 5752.58 537.253C5779.31 513.415 5792.68 480.908 5792.68 439.733C5792.68 397.835 5779.31 365.328 5752.58 342.212C5725.86 319.096 5685.4 307.538 5631.23 307.538H5464.58C5443.93 307.538 5433.23 282.888 5447.34 267.8V267.8C5461.97 252.154 5488.2 262.507 5488.2 283.927V595.391Z" fill="white"/>
<path d="M6215.5 538.337C6215.5 500.635 6246.06 470.072 6283.76 470.072H6567.8C6605.5 470.072 6636.07 500.635 6636.07 538.337V538.337C6636.07 576.038 6605.5 606.601 6567.8 606.601H6283.76C6246.06 606.601 6215.5 576.038 6215.5 538.337V538.337ZM6283.91 705.138C6283.91 747.663 6318.38 782.137 6360.91 782.137H6626.31C6665.21 782.137 6696.75 813.671 6696.75 852.569V852.569C6696.75 891.467 6665.21 923 6626.31 923H6186.46C6143.93 923 6109.46 888.526 6109.46 846V241.508C6109.46 198.983 6143.93 164.509 6186.46 164.509H6612.23C6651.13 164.509 6682.66 196.042 6682.66 234.94V234.94C6682.66 273.838 6651.13 305.371 6612.23 305.371H6360.91C6318.38 305.371 6283.91 339.845 6283.91 382.371V705.138Z" fill="white"/>
<path d="M1464.26 936.003C1443.46 936.003 1423.14 934.8 1403.31 932.393C1426.87 957.466 1448.99 979.257 1469.68 997.766C1491.73 1016.99 1512.89 1033.11 1533.17 1046.14C1543.94 1053.06 1556.6 1056.28 1569.4 1056.28H1620.75C1669.92 1056.28 1692.08 996.956 1657.5 962V962C1645.31 949.674 1634.74 939.976 1618.13 924.084C1614.9 920.991 1611.61 917.693 1608.26 914.19C1564.03 928.732 1516.03 936.003 1464.26 936.003Z" fill="white"/>
<path d="M2348.18 949.494C2240.54 949.494 2156.39 919.516 2095.71 859.559C2035.03 799.602 2004.69 714.001 2004.69 602.755V255C2004.69 212.474 2039.16 178 2081.69 178H2103.23C2145.75 178 2180.23 212.474 2180.23 255V596.254C2180.23 668.491 2195.03 720.502 2224.65 752.287C2254.27 784.071 2295.8 799.963 2349.26 799.963C2402.72 799.963 2444.25 784.071 2473.87 752.287C2503.49 720.502 2518.3 668.491 2518.3 596.254V255C2518.3 212.474 2552.77 178 2595.3 178H2614.66C2657.19 178 2691.67 212.474 2691.67 255V602.755C2691.67 714.001 2661.33 799.602 2600.65 859.559C2539.97 919.516 2455.81 949.494 2348.18 949.494Z" fill="white"/>
</svg>
